<mxfile host="app.diagrams.net" modified="2024-03-11T11:29:43.328Z" agent="Mozilla/5.0 (Macintosh; Intel Mac OS X 10_15_7) AppleWebKit/537.36 (KHTML, like Gecko) Chrome/122.0.0.0 Safari/537.36" version="23.1.0" etag="SpInnpDyZvbvNIk7YSsU" type="github">
  <diagram name="第 1 页" id="P9BGay0NmhXA1cg5w97w">
    <mxGraphModel>
      <root>
        <mxCell id="0" />
        <mxCell id="1" parent="0" />
      </root>
    </mxGraphModel>
  </diagram>
</mxfile>
